<svg width="24" height="24" viewBox="0 0 24 24" fill="none" xmlns="http://www.w3.org/2000/svg">
<path d="M5.04167 14.9583C5.04167 16.1042 4.14583 17 3 17C1.85417 17 0.958333 16.1042 0.958333 14.9583C0.958333 13.8125 1.85417 12.9167 3 12.9167H5.04167V14.9583Z" fill="#E01E5A"/>
<path d="M6.04167 14.9583C6.04167 13.8125 6.9375 12.9167 8.08333 12.9167C9.22917 12.9167 10.125 13.8125 10.125 14.9583V21C10.125 22.1458 9.22917 23.0417 8.08333 23.0417C6.9375 23.0417 6.04167 22.1458 6.04167 21V14.9583Z" fill="#E01E5A"/>
<path d="M8.08333 5.04167C6.9375 5.04167 6.04167 4.14583 6.04167 3C6.04167 1.85417 6.9375 0.958333 8.08333 0.958333C9.22917 0.958333 10.125 1.85417 10.125 3V5.04167H8.08333Z" fill="#36C5F0"/>
<path d="M8.08333 6.04167C9.22917 6.04167 10.125 6.9375 10.125 8.08333C10.125 9.22917 9.22917 10.125 8.08333 10.125H2.04167C0.895833 10.125 0 9.22917 0 8.08333C0 6.9375 0.895833 6.04167 2.04167 6.04167H8.08333Z" fill="#36C5F0"/>
<path d="M18.9583 8.08333C18.9583 6.9375 19.8542 6.04167 21 6.04167C22.1458 6.04167 23.0417 6.9375 23.0417 8.08333C23.0417 9.22917 22.1458 10.125 21 10.125H18.9583V8.08333Z" fill="#2EB67D"/>
<path d="M17.9583 8.08333C17.9583 9.22917 17.0625 10.125 15.9167 10.125C14.7708 10.125 13.875 9.22917 13.875 8.08333V2.04167C13.875 0.895833 14.7708 0 15.9167 0C17.0625 0 17.9583 0.895833 17.9583 2.04167V8.08333Z" fill="#2EB67D"/>
<path d="M15.9167 18.9583C17.0625 18.9583 17.9583 19.8542 17.9583 21C17.9583 22.1458 17.0625 23.0417 15.9167 23.0417C14.7708 23.0417 13.875 22.1458 13.875 21V18.9583H15.9167Z" fill="#ECB22E"/>
<path d="M15.9167 17.9583C14.7708 17.9583 13.875 17.0625 13.875 15.9167C13.875 14.7708 14.7708 13.875 15.9167 13.875H21.9583C23.1042 13.875 24 14.7708 24 15.9167C24 17.0625 23.1042 17.9583 21.9583 17.9583H15.9167Z" fill="#ECB22E"/>
</svg>
